<svg width="398" height="153" viewBox="0 0 398 153" version="1.1" xmlns="http://www.w3.org/2000/svg" xmlns:xlink="http://www.w3.org/1999/xlink">
<title>H&#195;&#169;l&#195;&#168;na &#38; Cyril</title>
<desc>Created using Figma</desc>
<g id="Canvas" transform="translate(287 180)">
<g id="H&#195;&#169;l&#195;&#168;na &#38; Cyril">
<g id="&#38;">
<use xlink:href="#path0_fill" transform="translate(-137 -169)" fill="#F9D7D9"/>
</g>
<g id="H&#195;&#169;l&#195;&#168;na">
<use xlink:href="#path1_fill" transform="translate(-295 -179)" fill="#41617C"/>
</g>
<g id="Cyril">
<use xlink:href="#path2_fill" transform="translate(-121 -160)" fill="#41617C"/>
</g>
</g>
</g>
<defs>
<path id="path0_fill" d="M 44.9303 83.176L 47.5222 83.176L 47.5222 82.456C 47.5222 74.968 52.2743 72.808 58.7542 72.088C 68.6902 72.088 75.0263 81.16 75.0263 90.376C 75.0263 103.768 63.9383 112.696 47.5222 112.696C 31.9703 112.696 21.7462 102.904 21.7462 88.072C 21.7462 70.648 29.5222 60.712 42.6262 60.712L 45.6502 60.712L 45.6502 58.12L 43.3462 58.12C 34.1302 58.12 28.5143 48.616 28.5143 39.4C 28.5143 29.464 34.8503 22.84 44.4982 22.84C 52.1302 22.84 59.7622 26.728 60.6262 37.672L 60.6262 39.976L 61.9223 39.976L 61.9223 20.68L 60.6262 20.68L 60.6262 23.704C 60.6262 24.568 60.6263 25.576 60.7703 26.152L 60.4823 26.296C 59.4742 24.568 57.7463 22.984 55.5863 22.12C 51.6983 20.536 46.6583 20.248 44.4982 20.248C 30.5302 20.248 21.1702 28.168 21.1702 39.832C 21.1702 48.76 26.6423 57.4 34.4183 58.84L 34.4183 58.984C 20.1623 60.856 10.3703 72.952 10.3703 88.072C 10.3703 104.92 24.0503 116.152 44.6423 116.152C 64.5143 116.152 77.7622 106.072 77.7622 90.664C 77.7622 83.032 73.8743 75.544 67.6822 71.944C 68.6902 71.944 69.5543 71.944 70.5623 71.944C 81.6502 71.944 90.8662 70.36 90.8662 56.392C 90.8662 55.672 90.7223 54.52 90.7223 53.8L 90.4342 49.912L 88.4183 49.912C 88.4183 50.632 88.4183 51.208 88.4183 51.784C 88.4183 62.152 77.3302 63.16 66.5302 64.024C 55.5862 64.744 44.9303 67.048 44.9303 81.88L 44.9303 83.176Z"/>
<path id="path1_fill" d="M 79.1358 25.76C 79.6478 25.504 80.2451 25.312 80.9278 25.184C 81.6104 25.0133 82.2291 24.9493 82.7837 24.992C 83.3384 25.0347 83.7438 25.2053 83.9998 25.504C 84.2984 25.8027 84.2984 26.272 83.9998 26.912L 83.9998 26.976C 83.8291 27.4453 83.2957 28.6187 82.3998 30.496C 81.5464 32.3307 80.5011 34.6133 79.2638 37.344C 78.0264 40.0747 76.7037 43.1253 75.2957 46.496C 73.8878 49.8667 72.6077 53.3013 71.4557 56.8C 73.0771 56.672 74.4851 56.3733 75.6797 55.904C 76.9171 55.392 77.8344 54.624 78.4317 53.6C 78.5171 53.4293 78.6451 53.3227 78.8158 53.28C 79.0291 53.2373 79.2211 53.2587 79.3918 53.344C 79.7758 53.5573 79.8611 53.8773 79.6478 54.304C 78.9224 55.6267 77.7918 56.5867 76.2558 57.184C 74.7624 57.7813 73.0131 58.1227 71.0078 58.208C 70.1118 60.896 69.3651 63.5413 68.7678 66.144C 68.1704 68.7467 67.7864 71.1787 67.6157 73.44C 67.4451 75.7013 67.5304 77.7493 67.8717 79.584C 68.2557 81.376 68.9811 82.8267 70.0478 83.936C 71.3704 85.344 72.9704 86.2187 74.8477 86.56C 76.7251 86.944 78.4104 86.7093 79.9038 85.856C 80.1171 85.728 80.3091 85.6853 80.4797 85.728C 80.6931 85.8133 80.8424 85.92 80.9278 86.048C 81.0131 86.2187 81.0344 86.3893 80.9917 86.56C 80.9491 86.7733 80.8211 86.944 80.6078 87.072C 79.4131 87.7973 78.0691 88.2453 76.5757 88.416C 75.0824 88.5867 73.5891 88.544 72.0958 88.288C 70.6451 88.032 69.2798 87.6053 67.9998 87.008C 66.7198 86.4533 65.6744 85.7493 64.8638 84.896C 63.7544 83.744 62.9864 82.2293 62.5598 80.352C 62.1758 78.4747 62.0478 76.3627 62.1758 74.016C 62.3038 71.6267 62.6664 69.088 63.2638 66.4C 63.8611 63.6693 64.6077 60.896 65.5037 58.08C 63.7117 57.9093 61.8344 57.6747 59.8717 57.376C 57.9518 57.0773 56.0104 56.7573 54.0478 56.416C 52.4264 56.16 50.8051 55.9253 49.1838 55.712C 47.6051 55.456 46.0691 55.2427 44.5757 55.072C 42.5277 60.0213 40.8424 64.1173 39.5198 67.36C 38.1971 70.56 37.1304 73.1627 36.3197 75.168C 35.5091 77.1307 34.8904 78.5813 34.4638 79.52C 34.0798 80.4587 33.8024 81.1413 33.6317 81.568C 33.4611 81.952 33.3544 82.208 33.3118 82.336C 33.2691 82.4213 33.1838 82.6133 33.0558 82.912C 31.4344 86.4107 29.4291 88.9707 27.0397 90.592C 24.6931 92.256 22.3251 93.216 19.9357 93.472C 17.5464 93.728 15.3064 93.4293 13.2157 92.576C 11.1251 91.7653 9.52508 90.6347 8.41575 89.184C 8.15975 88.8 8.22375 88.4587 8.60775 88.16C 8.94908 87.904 9.24775 87.9467 9.50375 88.288C 10.5277 89.6533 11.8291 90.6133 13.4078 91.168C 14.9438 91.7227 16.5864 91.7227 18.3358 91.168C 20.0424 90.6133 21.7278 89.4187 23.3918 87.584C 25.0984 85.792 26.6131 83.1893 27.9357 79.776L 38.4318 54.816C 37.0664 54.9013 35.8717 55.1147 34.8477 55.456C 33.8237 55.7973 33.0771 56.352 32.6077 57.12C 32.5224 57.2907 32.3731 57.3973 32.1598 57.44C 31.9891 57.44 31.8184 57.3973 31.6478 57.312C 31.4771 57.2267 31.3704 57.0987 31.3278 56.928C 31.2851 56.7147 31.3278 56.5227 31.4558 56.352C 32.1384 55.328 33.1197 54.6027 34.3997 54.176C 35.6797 53.7067 37.2157 53.4507 39.0078 53.408L 49.8238 27.808C 49.9518 27.4667 50.3784 27.168 51.1038 26.912C 51.8291 26.6133 52.5757 26.464 53.3438 26.464C 54.1118 26.4213 54.7518 26.528 55.2638 26.784C 55.7758 27.04 55.9038 27.552 55.6478 28.32C 53.4718 33.5253 51.5091 38.2187 49.7597 42.4C 48.0531 46.5813 46.5171 50.3573 45.1517 53.728C 46.6024 53.8987 48.0744 54.112 49.5678 54.368C 51.1038 54.5813 52.6824 54.816 54.3038 55.072C 56.3091 55.4133 58.2931 55.7333 60.2557 56.032C 62.2184 56.3307 64.1171 56.5653 65.9518 56.736C 66.8904 53.792 67.9144 50.8693 69.0238 47.968C 70.1758 45.024 71.3277 42.2293 72.4797 39.584C 73.6317 36.9387 74.7198 34.5067 75.7438 32.288C 76.7678 30.0267 77.6637 28.0853 78.4317 26.464C 78.6024 26.1653 78.8371 25.9307 79.1358 25.76ZM 107.31 59.488C 107.694 59.1893 108.014 59.04 108.27 59.04C 108.568 58.9973 108.782 59.04 108.91 59.168C 109.08 59.296 109.144 59.4667 109.102 59.68C 109.102 59.8507 109.016 60 108.846 60.128C 106.286 62.0053 103.747 63.9467 101.23 65.952C 98.7124 67.9147 96.3231 69.6 94.0618 71.008C 91.8431 72.416 89.8164 73.3333 87.9818 73.76C 86.1471 74.1867 84.6324 73.7813 83.4377 72.544C 82.3711 71.392 81.9657 69.664 82.2218 67.36C 82.6058 64.544 83.6298 61.9627 85.2938 59.616C 86.9578 57.2693 89.0271 55.4347 91.5018 54.112C 93.0804 53.3013 94.4671 52.96 95.6617 53.088C 96.8564 53.1733 97.7737 53.536 98.4137 54.176C 99.0964 54.816 99.4591 55.6267 99.5018 56.608C 99.5444 57.5467 99.2031 58.4427 98.4778 59.296C 97.9657 59.936 97.2404 60.512 96.3017 61.024C 95.4057 61.536 94.4244 62.0053 93.3577 62.432C 92.2911 62.816 91.2031 63.136 90.0938 63.392C 88.9844 63.648 87.9818 63.84 87.0858 63.968C 86.3178 65.5893 85.8058 67.2747 85.5498 69.024C 85.3364 70.56 85.5498 71.52 86.1898 71.904C 86.8298 72.288 87.7471 72.288 88.9417 71.904C 90.1364 71.4773 91.5231 70.7733 93.1017 69.792C 94.6804 68.768 96.3017 67.6587 97.9657 66.464C 99.6724 65.2267 101.336 63.9893 102.958 62.752C 104.579 61.5147 106.03 60.4267 107.31 59.488ZM 97.3898 58.464C 97.8164 57.952 98.0298 57.4827 98.0298 57.056C 98.0298 56.6293 97.8804 56.3093 97.5817 56.096C 97.2831 55.84 96.8564 55.712 96.3017 55.712C 95.7471 55.712 95.1284 55.904 94.4458 56.288C 93.0804 57.0133 91.8431 57.9093 90.7338 58.976C 89.6671 60 88.7284 61.1733 87.9177 62.496C 88.8564 62.3253 89.8164 62.112 90.7978 61.856C 91.7791 61.5573 92.6964 61.2373 93.5498 60.896C 94.4031 60.512 95.1711 60.128 95.8538 59.744C 96.5364 59.3173 97.0484 58.8907 97.3898 58.464ZM 96.2378 50.848C 95.7258 50.6773 95.4484 50.4853 95.4057 50.272C 95.4057 50.016 95.4057 49.8453 95.4057 49.76L 95.9177 48.224L 97.2618 46.304L 98.5418 44.448C 98.7124 44.192 98.9257 44.0427 99.1817 44C 99.4804 43.9147 99.7791 43.8933 100.078 43.936C 100.419 43.936 100.739 43.9787 101.038 44.064C 101.336 44.1067 101.55 44.1493 101.678 44.192C 102.36 44.4053 102.766 44.6187 102.894 44.832C 103.064 45.0027 103.15 45.1307 103.15 45.216L 103.022 45.792L 98.4778 50.656C 98.2218 50.912 97.8591 51.04 97.3898 51.04C 96.9631 50.9973 96.5791 50.9333 96.2378 50.848ZM 161.923 3.104C 162.606 4.128 163.033 5.38667 163.203 6.88C 163.417 8.33067 163.182 9.97333 162.499 11.808C 161.859 13.6 160.729 15.5413 159.107 17.632C 157.486 19.7227 155.225 21.8773 152.323 24.096C 147.203 28.0213 141.955 31.7547 136.579 35.296C 131.246 38.7947 125.742 42.1013 120.067 45.216C 118.275 48.3733 116.675 51.2107 115.267 53.728C 113.902 56.2453 112.707 58.592 111.683 60.768C 110.659 62.9013 109.827 64.928 109.187 66.848C 108.59 68.768 108.163 70.7093 107.907 72.672C 107.31 76.9813 107.865 79.7547 109.571 80.992C 111.278 82.2293 113.966 81.5893 117.635 79.072L 146.051 59.424C 146.307 59.2533 146.563 59.168 146.819 59.168C 147.075 59.168 147.267 59.232 147.395 59.36C 147.523 59.488 147.545 59.6587 147.459 59.872C 147.374 60.0853 147.139 60.32 146.755 60.576L 118.403 80.224C 115.331 82.3147 112.75 83.4453 110.659 83.616C 108.569 83.744 106.883 83.296 105.603 82.272C 104.366 81.248 103.513 79.8187 103.043 77.984C 102.617 76.1067 102.51 74.1867 102.723 72.224C 103.107 68.7253 104.003 65.3973 105.411 62.24C 106.819 59.0827 108.291 56.0533 109.827 53.152C 110.937 51.0187 112.302 48.4587 113.923 45.472C 115.545 42.4853 117.315 39.328 119.235 36C 121.198 32.672 123.267 29.3013 125.443 25.888C 127.619 22.432 129.838 19.1893 132.099 16.16C 134.361 13.088 136.601 10.3573 138.819 7.968C 141.081 5.536 143.257 3.70133 145.347 2.464C 147.225 1.312 149.017 0.544 150.723 0.16C 152.473 -0.266667 154.051 -0.416 155.459 -0.288C 156.91 -0.16 158.19 0.202667 159.299 0.8C 160.409 1.39733 161.283 2.16533 161.923 3.104ZM 151.491 22.944C 153.923 21.0667 155.886 19.232 157.379 17.44C 158.915 15.648 160.046 13.9413 160.771 12.32C 161.497 10.6987 161.859 9.20533 161.859 7.84C 161.859 6.47467 161.582 5.30133 161.027 4.32C 160.558 3.59467 159.918 3.08267 159.107 2.784C 158.339 2.48533 157.486 2.35733 156.547 2.4C 155.651 2.44267 154.734 2.63467 153.795 2.976C 152.899 3.27467 152.067 3.63733 151.299 4.064C 148.867 5.472 146.307 7.648 143.619 10.592C 140.974 13.4933 138.329 16.7787 135.683 20.448C 133.081 24.0747 130.542 27.872 128.067 31.84C 125.635 35.7653 123.417 39.456 121.411 42.912C 126.659 39.9253 131.779 36.7893 136.771 33.504C 141.806 30.176 146.713 26.656 151.491 22.944ZM 166.747 59.488C 167.131 59.1893 167.451 59.04 167.707 59.04C 168.006 58.9973 168.219 59.04 168.347 59.168C 168.518 59.296 168.582 59.4667 168.539 59.68C 168.539 59.8507 168.454 60 168.283 60.128C 165.723 62.0053 163.185 63.9467 160.667 65.952C 158.15 67.9147 155.761 69.6 153.499 71.008C 151.281 72.416 149.254 73.3333 147.419 73.76C 145.585 74.1867 144.07 73.7813 142.875 72.544C 141.809 71.392 141.403 69.664 141.659 67.36C 142.043 64.544 143.067 61.9627 144.731 59.616C 146.395 57.2693 148.465 55.4347 150.939 54.112C 152.518 53.3013 153.905 52.96 155.099 53.088C 156.294 53.1733 157.211 53.536 157.851 54.176C 158.534 54.816 158.897 55.6267 158.939 56.608C 158.982 57.5467 158.641 58.4427 157.915 59.296C 157.403 59.936 156.678 60.512 155.739 61.024C 154.843 61.536 153.862 62.0053 152.795 62.432C 151.729 62.816 150.641 63.136 149.531 63.392C 148.422 63.648 147.419 63.84 146.523 63.968C 145.755 65.5893 145.243 67.2747 144.987 69.024C 144.774 70.56 144.987 71.52 145.627 71.904C 146.267 72.288 147.185 72.288 148.379 71.904C 149.574 71.4773 150.961 70.7733 152.539 69.792C 154.118 68.768 155.739 67.6587 157.403 66.464C 159.11 65.2267 160.774 63.9893 162.395 62.752C 164.017 61.5147 165.467 60.4267 166.747 59.488ZM 156.827 58.464C 157.254 57.952 157.467 57.4827 157.467 57.056C 157.467 56.6293 157.318 56.3093 157.019 56.096C 156.721 55.84 156.294 55.712 155.739 55.712C 155.185 55.712 154.566 55.904 153.883 56.288C 152.518 57.0133 151.281 57.9093 150.171 58.976C 149.105 60 148.166 61.1733 147.355 62.496C 148.294 62.3253 149.254 62.112 150.235 61.856C 151.217 61.5573 152.134 61.2373 152.987 60.896C 153.841 60.512 154.609 60.128 155.291 59.744C 155.974 59.3173 156.486 58.8907 156.827 58.464ZM 155.931 50.912C 155.59 50.912 155.206 50.848 154.779 50.72C 154.353 50.5493 154.054 50.2933 153.883 49.952L 151.067 43.936L 151.131 43.36C 151.174 43.2747 151.281 43.168 151.451 43.04C 151.665 42.912 152.134 42.848 152.859 42.848C 152.987 42.848 153.201 42.8693 153.499 42.912C 153.798 42.912 154.097 42.9547 154.395 43.04C 154.694 43.1253 154.971 43.2533 155.227 43.424C 155.483 43.552 155.654 43.7653 155.739 44.064L 156.379 46.24L 157.083 48.48L 157.083 50.144C 157.083 50.2293 157.019 50.3787 156.891 50.592C 156.806 50.8053 156.486 50.912 155.931 50.912ZM 196.788 58.912C 197.087 58.7413 197.343 58.656 197.556 58.656C 197.812 58.656 197.983 58.72 198.068 58.848C 198.196 58.976 198.218 59.168 198.132 59.424C 198.09 59.6373 197.898 59.8507 197.556 60.064L 181.94 70.496C 179.38 72.0747 177.375 73.0987 175.924 73.568C 174.516 74.0373 173.514 74.144 172.916 73.888C 172.362 73.5893 172.148 72.992 172.276 72.096C 172.447 71.1573 172.81 70.0907 173.364 68.896C 173.834 67.9147 174.431 66.848 175.156 65.696C 175.924 64.544 176.628 63.4347 177.268 62.368C 177.951 61.3013 178.484 60.3627 178.868 59.552C 179.295 58.6987 179.423 58.1013 179.252 57.76C 179.039 57.4187 178.676 57.3333 178.164 57.504C 177.695 57.6747 176.948 58.1227 175.924 58.848C 174.9 59.5733 173.578 60.5973 171.956 61.92C 170.378 63.2427 168.394 64.8853 166.004 66.848C 165.663 67.488 165.343 68.128 165.044 68.768C 164.746 69.408 164.447 70.048 164.148 70.688C 163.764 71.584 163.231 72.352 162.548 72.992C 161.866 73.632 161.226 74.0373 160.628 74.208C 160.074 74.336 159.647 74.1867 159.348 73.76C 159.05 73.3333 159.092 72.5227 159.476 71.328C 159.604 70.9867 159.946 70.1973 160.5 68.96C 161.055 67.7227 161.802 66.208 162.74 64.416C 163.722 62.624 164.874 60.64 166.196 58.464C 167.519 56.288 168.991 54.0907 170.612 51.872C 170.74 51.7013 170.954 51.5733 171.252 51.488C 171.594 51.36 171.956 51.296 172.34 51.296C 172.724 51.296 173.087 51.3173 173.428 51.36C 173.812 51.4027 174.111 51.4667 174.324 51.552C 174.666 51.68 174.879 51.872 174.964 52.128C 175.092 52.384 175.007 52.7467 174.708 53.216C 173.514 54.752 172.404 56.288 171.38 57.824C 170.356 59.36 169.375 60.896 168.436 62.432C 168.906 62.048 169.716 61.408 170.868 60.512C 172.063 59.5733 173.322 58.6133 174.644 57.632C 176.01 56.6507 177.29 55.7547 178.484 54.944C 179.722 54.1333 180.618 53.6213 181.172 53.408C 182.068 53.0667 182.772 52.9813 183.284 53.152C 183.796 53.3227 184.159 53.6213 184.372 54.048C 184.628 54.432 184.756 54.9013 184.756 55.456C 184.756 56.0107 184.671 56.5227 184.5 56.992C 184.372 57.3333 184.18 57.76 183.924 58.272C 183.668 58.784 183.284 59.488 182.772 60.384C 182.303 61.28 181.663 62.3893 180.852 63.712C 180.084 65.0347 179.124 66.656 177.972 68.576C 177.46 69.3867 177.183 69.984 177.14 70.368C 177.14 70.7093 177.29 70.88 177.588 70.88C 177.887 70.88 178.335 70.752 178.932 70.496C 179.572 70.1973 180.276 69.8133 181.044 69.344C 181.087 69.344 181.386 69.152 181.94 68.768C 182.495 68.384 183.22 67.9147 184.116 67.36C 185.012 66.7627 186.015 66.1013 187.124 65.376C 188.276 64.608 189.428 63.84 190.58 63.072C 191.732 62.304 192.842 61.5573 193.908 60.832C 195.018 60.1067 195.978 59.4667 196.788 58.912ZM 225.246 59.424C 225.588 59.168 225.908 59.0187 226.206 58.976C 226.548 58.9333 226.804 58.976 226.974 59.104C 227.145 59.1893 227.23 59.3173 227.23 59.488C 227.23 59.6587 227.081 59.8293 226.782 60C 223.966 61.9627 221.321 63.904 218.846 65.824C 216.372 67.744 214.046 69.3227 211.87 70.56C 210.334 71.4133 209.033 71.9253 207.966 72.096C 206.9 72.2667 206.004 72.2027 205.278 71.904C 204.596 71.6053 204.084 71.136 203.742 70.496C 203.444 69.8133 203.294 69.088 203.294 68.32C 202.27 69.344 201.161 70.2827 199.966 71.136C 198.772 71.9467 197.513 72.6507 196.19 73.248C 195.081 73.7173 194.1 73.952 193.246 73.952C 192.436 73.952 191.732 73.7813 191.134 73.44C 190.58 73.056 190.153 72.544 189.854 71.904C 189.556 71.264 189.406 70.56 189.406 69.792C 189.406 68.896 189.641 67.8507 190.11 66.656C 190.622 65.4187 191.305 64.16 192.158 62.88C 193.012 61.6 193.972 60.3413 195.038 59.104C 196.148 57.8667 197.3 56.7787 198.494 55.84C 199.689 54.9013 200.884 54.176 202.078 53.664C 203.316 53.152 204.468 52.9387 205.534 53.024C 206.558 53.1093 207.39 53.4293 208.03 53.984C 208.67 54.496 209.097 55.1147 209.31 55.84C 209.566 56.5227 209.609 57.248 209.438 58.016C 209.31 58.784 208.99 59.4667 208.478 60.064C 207.881 60.7467 207.177 61.1947 206.366 61.408C 205.598 61.5787 204.788 61.4933 203.934 61.152C 203.721 61.0667 203.572 60.9387 203.486 60.768C 203.401 60.5547 203.38 60.3627 203.422 60.192C 203.465 60.0213 203.572 59.8933 203.742 59.808C 203.913 59.7227 204.169 59.744 204.51 59.872C 205.022 60.0853 205.534 60.1493 206.046 60.064C 206.601 59.936 207.049 59.6373 207.39 59.168C 207.945 58.5707 208.094 57.9307 207.838 57.248C 207.582 56.5227 207.113 56.096 206.43 55.968C 205.62 55.84 204.745 55.968 203.806 56.352C 202.91 56.736 202.014 57.2907 201.118 58.016C 200.222 58.7413 199.369 59.5947 198.558 60.576C 197.748 61.5573 197.022 62.56 196.382 63.584C 195.742 64.608 195.23 65.6107 194.846 66.592C 194.462 67.5307 194.27 68.3413 194.27 69.024C 194.27 69.536 194.505 69.984 194.974 70.368C 195.486 70.7093 196.169 70.816 197.022 70.688C 197.918 70.56 198.942 70.112 200.094 69.344C 201.289 68.5333 202.59 67.232 203.998 65.44C 204.212 64.9707 204.532 64.5013 204.958 64.032C 205.684 63.2213 206.345 62.7307 206.942 62.56C 207.54 62.3467 208.03 62.3467 208.414 62.56C 208.798 62.7307 209.054 63.0507 209.182 63.52C 209.31 63.9467 209.246 64.3733 208.99 64.8C 208.35 66.0373 207.988 67.0187 207.902 67.744C 207.817 68.4693 207.902 69.0027 208.158 69.344C 208.457 69.6427 208.884 69.7493 209.438 69.664C 210.036 69.5787 210.697 69.344 211.422 68.96C 213.47 67.8507 215.582 66.464 217.758 64.8C 219.977 63.0933 222.473 61.3013 225.246 59.424Z"/>
<path id="path2_fill" d="M 78.861 28.128C 80.4823 30.048 81.2717 32.544 81.229 35.616C 81.1863 38.6453 80.4183 41.8453 78.925 45.216C 78.8397 45.4293 78.7117 45.5573 78.541 45.6C 78.3703 45.6427 78.1997 45.6427 78.029 45.6C 77.8583 45.5147 77.7303 45.408 77.645 45.28C 77.5597 45.1093 77.5597 44.9173 77.645 44.704C 78.2423 43.168 78.605 41.6747 78.733 40.224C 78.861 38.7733 78.7543 37.4507 78.413 36.256C 78.1143 35.0187 77.6023 33.952 76.877 33.056C 76.1517 32.1173 75.2343 31.4133 74.125 30.944C 72.1197 30.1333 70.029 30.176 67.853 31.072C 65.677 31.9253 63.5223 33.376 61.389 35.424C 59.2557 37.472 57.165 39.968 55.117 42.912C 53.1117 45.856 51.277 49.0133 49.613 52.384C 47.949 55.712 46.4983 59.1467 45.261 62.688C 44.0663 66.1867 43.1917 69.5147 42.637 72.672C 42.125 75.8293 41.997 78.688 42.253 81.248C 42.509 83.7653 43.277 85.7493 44.557 87.2C 45.5383 88.3093 46.7543 89.0347 48.205 89.376C 49.6557 89.7173 51.1917 89.6747 52.813 89.248C 54.4343 88.864 56.077 88.1173 57.741 87.008C 59.405 85.8987 60.9837 84.4907 62.477 82.784C 63.9703 81.0347 65.293 79.008 66.445 76.704C 67.6397 74.3573 68.5357 71.776 69.133 68.96C 69.1757 68.7467 69.2823 68.5973 69.453 68.512C 69.6237 68.4267 69.7943 68.384 69.965 68.384C 70.1783 68.384 70.349 68.448 70.477 68.576C 70.605 68.704 70.6477 68.896 70.605 69.152C 69.965 72.608 68.941 75.744 67.533 78.56C 66.125 81.3333 64.4823 83.7227 62.605 85.728C 60.7277 87.776 58.701 89.4187 56.525 90.656C 54.3917 91.936 52.2797 92.768 50.189 93.152C 48.0983 93.536 46.093 93.472 44.173 92.96C 42.2957 92.448 40.6957 91.424 39.373 89.888C 37.581 87.84 36.5143 85.1307 36.173 81.76C 35.8743 78.3467 36.1303 74.6347 36.941 70.624C 37.7517 66.5707 39.0103 62.4107 40.717 58.144C 42.4663 53.8347 44.493 49.7387 46.797 45.856C 49.1437 41.9307 51.6823 38.4107 54.413 35.296C 57.1437 32.1813 59.8957 29.792 62.669 28.128C 65.869 26.208 68.9197 25.2053 71.821 25.12C 74.7223 25.0347 77.069 26.0373 78.861 28.128ZM 115.148 59.04C 115.446 58.8693 115.724 58.784 115.98 58.784C 116.236 58.784 116.406 58.848 116.492 58.976C 116.62 59.104 116.662 59.2747 116.62 59.488C 116.577 59.7013 116.406 59.8933 116.108 60.064C 112.737 62.368 109.622 64.4587 106.763 66.336C 103.905 68.1707 101.153 69.8987 98.5075 71.52C 97.7395 73.824 96.8008 76.4053 95.6915 79.264C 94.6248 82.08 93.3448 85.024 91.8515 88.096C 90.3582 91.2107 88.6302 94.4107 86.6675 97.696C 84.7048 100.981 82.4435 104.245 79.8835 107.488C 77.3235 110.773 74.4435 113.973 71.2435 117.088C 68.0435 120.203 64.4595 123.147 60.4915 125.92C 57.0782 128.309 53.8568 130.016 50.8275 131.04C 47.7982 132.107 45.0035 132.661 42.4435 132.704C 39.8408 132.789 37.5155 132.427 35.4675 131.616C 33.3768 130.848 31.6062 129.803 30.1555 128.48C 28.7048 127.157 27.5955 125.643 26.8275 123.936C 26.0168 122.229 25.5902 120.501 25.5475 118.752C 25.5048 116.235 26.1235 113.845 27.4035 111.584C 28.6408 109.323 30.3902 107.147 32.6515 105.056C 34.8702 102.965 37.5155 100.96 40.5875 99.04C 43.6168 97.1627 46.8808 95.328 50.3795 93.536C 53.8782 91.744 57.5262 89.9947 61.3235 88.288C 65.1208 86.5813 68.8968 84.896 72.6515 83.232C 76.3635 81.568 79.9688 79.904 83.4675 78.24C 86.9662 76.576 90.1875 74.8907 93.1315 73.184C 93.7288 71.776 94.2408 70.4747 94.6675 69.28C 95.1368 68.0427 95.5635 66.9333 95.9475 65.952L 93.0675 68.128C 92.0435 68.9813 91.0195 69.5573 89.9955 69.856C 89.0142 70.1547 88.1608 70.1333 87.4355 69.792C 86.7102 69.4507 86.1982 68.8107 85.8995 67.872C 85.6435 66.8907 85.7288 65.5893 86.1555 63.968C 86.7102 61.792 87.4782 59.68 88.4595 57.632C 88.9288 56.5653 89.0142 56.0107 88.7155 55.968C 88.4168 55.9253 87.6275 56.288 86.3475 57.056C 85.7075 57.44 84.9822 57.9093 84.1715 58.464C 83.3608 58.976 82.3795 59.5947 81.2275 60.32C 80.5022 60.704 80.0115 60.7253 79.7555 60.384C 79.4568 60.0427 79.6915 59.616 80.4595 59.104C 80.8435 58.848 81.5048 58.4213 82.4435 57.824C 83.3822 57.184 84.4275 56.5227 85.5795 55.84C 86.6888 55.2 87.7982 54.6027 88.9075 54.048C 90.0168 53.4933 90.9555 53.1733 91.7235 53.088C 92.4915 52.96 93.0035 53.1307 93.2595 53.6C 93.5155 54.0693 93.3662 54.9653 92.8115 56.288C 92.2995 57.4827 91.7875 58.8267 91.2755 60.32C 90.7635 61.7707 90.3368 63.1147 89.9955 64.352C 89.6968 65.6747 89.6755 66.528 89.9315 66.912C 90.2302 67.296 90.7208 67.3813 91.4035 67.168C 92.0862 66.912 92.8968 66.4427 93.8355 65.76C 94.8168 65.0773 95.8622 64.3307 96.9715 63.52C 97.2702 62.7093 97.4195 62.304 97.4195 62.304C 97.9742 61.2373 98.5502 60.512 99.1475 60.128C 99.7448 59.744 100.278 59.5947 100.748 59.68C 101.217 59.7227 101.558 59.9573 101.772 60.384C 101.985 60.8107 101.985 61.28 101.772 61.792C 101.43 62.56 101.046 63.6053 100.62 64.928C 100.236 66.208 99.7662 67.7227 99.2115 69.472C 101.644 67.9787 104.139 66.4 106.7 64.736C 109.26 63.0293 112.076 61.1307 115.148 59.04ZM 56.3955 122.144C 61.4302 118.645 65.8675 114.848 69.7075 110.752C 73.5475 106.656 76.9182 102.539 79.8195 98.4C 82.6782 94.2613 85.1102 90.208 87.1155 86.24C 89.1208 82.272 90.8275 78.624 92.2355 75.296C 89.6755 76.7893 86.7528 78.2827 83.4675 79.776C 80.2248 81.2693 76.8328 82.8053 73.2915 84.384C 69.7075 85.9627 66.0808 87.584 62.4115 89.248C 58.6995 90.912 55.1368 92.6187 51.7235 94.368C 48.2675 96.16 45.0248 97.9733 41.9955 99.808C 38.9235 101.685 36.2782 103.627 34.0595 105.632C 31.7982 107.68 30.0275 109.792 28.7475 111.968C 27.4675 114.144 26.8488 116.405 26.8915 118.752C 26.9342 121.184 27.7022 123.275 29.1955 125.024C 30.6888 126.816 32.7368 127.989 35.3395 128.544C 37.9422 129.099 41.0355 128.907 44.6195 127.968C 48.2035 127.072 52.1288 125.131 56.3955 122.144ZM 157.917 59.808C 158.173 59.5947 158.45 59.4667 158.749 59.424C 159.09 59.3813 159.368 59.4027 159.581 59.488C 159.794 59.5733 159.901 59.7013 159.901 59.872C 159.944 60 159.837 60.1493 159.581 60.32C 158.002 61.472 156.146 62.8373 154.013 64.416C 151.922 65.952 149.768 67.5307 147.549 69.152C 145.33 70.7733 143.154 72.3733 141.021 73.952C 138.93 75.488 137.096 76.8533 135.517 78.048C 133.597 79.5413 131.976 80.4587 130.653 80.8C 129.33 81.1413 128.264 81.0987 127.453 80.672C 126.685 80.2453 126.152 79.4987 125.853 78.432C 125.597 77.3653 125.576 76.1493 125.789 74.784C 125.96 73.76 126.216 72.7787 126.557 71.84C 126.941 70.8587 127.368 69.92 127.837 69.024C 128.306 68.128 128.797 67.2533 129.309 66.4C 129.821 65.504 130.29 64.608 130.717 63.712C 131.101 62.944 131.378 62.0907 131.549 61.152C 131.762 60.1707 131.826 59.2107 131.741 58.272C 131.698 57.3333 131.506 56.4373 131.165 55.584C 130.824 54.7307 130.312 54.0267 129.629 53.472C 128.733 52.7467 127.752 52.2133 126.685 51.872C 125.618 51.488 124.722 51.168 123.997 50.912C 123.016 52.7893 121.714 54.6453 120.093 56.48C 118.514 58.272 116.808 59.744 114.973 60.896C 114.632 61.152 114.333 61.28 114.077 61.28C 113.778 61.28 113.544 61.216 113.373 61.088C 113.202 60.96 113.138 60.7893 113.181 60.576C 113.224 60.3627 113.437 60.128 113.821 59.872C 115.4 58.7627 117.021 57.376 118.685 55.712C 120.349 54.0053 121.693 52.2347 122.717 50.4C 121.949 50.0587 121.224 49.6533 120.541 49.184C 119.901 48.7147 119.346 48.1173 118.877 47.392C 118.322 46.5813 118.066 45.7493 118.109 44.896C 118.194 44 118.472 43.2533 118.941 42.656C 119.453 42.0587 120.093 41.6747 120.861 41.504C 121.672 41.2907 122.504 41.4613 123.357 42.016C 124.168 42.5707 124.701 43.3173 124.957 44.256C 125.256 45.1947 125.362 46.0907 125.277 46.944C 125.234 47.4133 125.149 47.8827 125.021 48.352C 124.936 48.7787 124.808 49.2053 124.637 49.632C 125.704 50.016 126.706 50.3573 127.645 50.656C 128.626 50.9547 129.522 51.2747 130.333 51.616C 131.186 51.9147 131.976 52.2987 132.701 52.768C 133.426 53.2373 134.088 53.8133 134.685 54.496C 135.41 55.3493 135.901 56.224 136.157 57.12C 136.413 58.016 136.498 58.9333 136.413 59.872C 136.37 60.8107 136.178 61.7493 135.837 62.688C 135.538 63.6267 135.176 64.544 134.749 65.44C 134.322 66.336 133.853 67.2107 133.341 68.064C 132.829 68.9173 132.338 69.7707 131.869 70.624C 131.4 71.4773 130.973 72.352 130.589 73.248C 130.248 74.1013 130.013 74.9973 129.885 75.936C 129.672 77.4293 129.906 78.3253 130.589 78.624C 131.272 78.88 132.573 78.3253 134.493 76.96C 136.882 75.168 138.845 73.696 140.381 72.544C 141.96 71.392 143.261 70.4533 144.285 69.728C 145.309 68.96 146.12 68.3627 146.717 67.936C 147.314 67.4667 147.826 67.0827 148.253 66.784C 148.722 66.4427 149.17 66.1227 149.597 65.824C 150.024 65.5253 150.557 65.1413 151.197 64.672C 151.88 64.2027 152.733 63.584 153.757 62.816C 154.824 62.048 156.21 61.0453 157.917 59.808ZM 120.029 46.688C 120.37 47.2853 120.84 47.776 121.437 48.16C 122.034 48.544 122.653 48.8853 123.293 49.184C 123.464 48.8427 123.592 48.48 123.677 48.096C 123.805 47.6693 123.89 47.264 123.933 46.88C 124.061 45.344 123.805 44.2773 123.165 43.68C 122.568 43.0827 121.928 42.848 121.245 42.976C 120.605 43.0613 120.093 43.4453 119.709 44.128C 119.325 44.8107 119.432 45.664 120.029 46.688ZM 177.721 58.976C 178.275 58.592 178.68 58.592 178.936 58.976C 179.235 59.36 179.086 59.744 178.488 60.128L 159.993 72.288C 159.438 72.672 158.84 73.0133 158.201 73.312C 157.603 73.6107 156.984 73.824 156.345 73.952C 155.747 74.0373 155.15 74.016 154.553 73.888C 153.998 73.7173 153.486 73.376 153.017 72.864C 152.419 72.224 152.185 71.3493 152.312 70.24C 152.44 69.088 152.761 67.8507 153.273 66.528C 153.785 65.2053 154.403 63.8613 155.129 62.496C 155.897 61.1307 156.643 59.8933 157.369 58.784C 158.094 57.6747 158.713 56.7787 159.225 56.096C 159.737 55.3707 159.993 54.9867 159.993 54.944C 160.334 54.432 160.782 53.984 161.337 53.6C 161.891 53.216 162.616 53.024 163.512 53.024C 164.707 53.024 165.219 53.3653 165.048 54.048C 164.921 54.7307 164.515 55.52 163.833 56.416C 162.979 57.568 162.041 58.8693 161.017 60.32C 160.035 61.7707 159.139 63.2 158.328 64.608C 157.518 65.9733 156.942 67.2533 156.601 68.448C 156.259 69.6427 156.345 70.56 156.857 71.2C 157.283 71.712 157.795 71.8187 158.393 71.52C 158.99 71.1787 159.587 70.8373 160.185 70.496L 177.721 58.976ZM 167.096 49.504C 166.798 49.504 166.499 49.4187 166.201 49.248C 165.902 49.0773 165.646 48.8213 165.433 48.48C 165.134 47.968 165.006 47.392 165.048 46.752C 165.134 46.0693 165.326 45.5147 165.625 45.088C 165.923 44.6613 166.264 44.3627 166.649 44.192C 167.075 43.9787 167.502 43.8293 167.928 43.744C 168.142 43.7013 168.355 43.68 168.569 43.68C 168.825 43.6373 169.059 43.6587 169.273 43.744C 169.785 43.9147 170.168 44.2347 170.424 44.704C 170.68 45.216 170.766 45.792 170.68 46.432C 170.595 47.0293 170.403 47.4987 170.105 47.84C 169.806 48.224 169.592 48.4587 169.464 48.544C 169.337 48.6293 169.123 48.7787 168.825 48.992C 168.569 49.12 168.291 49.248 167.993 49.376C 167.737 49.4613 167.438 49.504 167.096 49.504ZM 230.517 3.104C 231.2 4.128 231.626 5.38667 231.797 6.88C 232.01 8.33067 231.776 9.97333 231.093 11.808C 230.453 13.6 229.322 15.5413 227.701 17.632C 226.08 19.7227 223.818 21.8773 220.917 24.096C 215.797 28.0213 210.549 31.7547 205.173 35.296C 199.84 38.7947 194.336 42.1013 188.661 45.216C 186.869 48.3733 185.269 51.2107 183.861 53.728C 182.496 56.2453 181.301 58.592 180.277 60.768C 179.253 62.9013 178.421 64.928 177.781 66.848C 177.184 68.768 176.757 70.7093 176.501 72.672C 175.904 76.9813 176.458 79.7547 178.165 80.992C 179.872 82.2293 182.56 81.5893 186.229 79.072L 214.645 59.424C 214.901 59.2533 215.157 59.168 215.413 59.168C 215.669 59.168 215.861 59.232 215.989 59.36C 216.117 59.488 216.138 59.6587 216.053 59.872C 215.968 60.0853 215.733 60.32 215.349 60.576L 186.997 80.224C 183.925 82.3147 181.344 83.4453 179.253 83.616C 177.162 83.744 175.477 83.296 174.197 82.272C 172.96 81.248 172.106 79.8187 171.637 77.984C 171.21 76.1067 171.104 74.1867 171.317 72.224C 171.701 68.7253 172.597 65.3973 174.005 62.24C 175.413 59.0827 176.885 56.0533 178.421 53.152C 179.53 51.0187 180.896 48.4587 182.517 45.472C 184.138 42.4853 185.909 39.328 187.829 36C 189.792 32.672 191.861 29.3013 194.037 25.888C 196.213 22.432 198.432 19.1893 200.693 16.16C 202.954 13.088 205.194 10.3573 207.413 7.968C 209.674 5.536 211.85 3.70133 213.941 2.464C 215.818 1.312 217.61 0.544 219.317 0.16C 221.066 -0.266667 222.645 -0.416 224.053 -0.288C 225.504 -0.16 226.784 0.202667 227.893 0.8C 229.002 1.39733 229.877 2.16533 230.517 3.104ZM 220.085 22.944C 222.517 21.0667 224.48 19.232 225.973 17.44C 227.509 15.648 228.64 13.9413 229.365 12.32C 230.09 10.6987 230.453 9.20533 230.453 7.84C 230.453 6.47467 230.176 5.30133 229.621 4.32C 229.152 3.59467 228.512 3.08267 227.701 2.784C 226.933 2.48533 226.08 2.35733 225.141 2.4C 224.245 2.44267 223.328 2.63467 222.389 2.976C 221.493 3.27467 220.661 3.63733 219.893 4.064C 217.461 5.472 214.901 7.648 212.213 10.592C 209.568 13.4933 206.922 16.7787 204.277 20.448C 201.674 24.0747 199.136 27.872 196.661 31.84C 194.229 35.7653 192.01 39.456 190.005 42.912C 195.253 39.9253 200.373 36.7893 205.365 33.504C 210.4 30.176 215.306 26.656 220.085 22.944Z"/>
</defs>
</svg>
