<svg width="52" height="43" viewBox="0 0 52 43" version="1.1" xmlns="http://www.w3.org/2000/svg" xmlns:xlink="http://www.w3.org/1999/xlink">
<title>Icon</title>
<desc>Created using Figma</desc>
<g id="Canvas" transform="translate(240 -172)">
<g id="Icon">
<g id="Vector">
<use xlink:href="#path0_fill" transform="translate(-240 172)" fill="#F2F2F2"/>
</g>
</g>
</g>
<defs>
<path id="path0_fill" d="M 18.9091 -1.69718e-05C 18.4095 0.00953858 18.0503 0.345028 17.8566 0.653194L 15.2159 5.9722L 5.31818 5.9722C 2.39235 5.9722 0 8.39011 0 11.3472L 0 37.625C 0 40.5821 2.39235 43 5.31818 43L 46.6818 43C 49.6076 43 52 40.5821 52 37.625L 52 11.3472C 52 8.39011 49.6076 5.9722 46.6818 5.9722L 36.7841 5.9722L 34.1434 0.653194C 33.9471 0.262904 33.5241 0.000383167 33.0909 -1.69718e-05L 18.9091 -1.69718e-05ZM 19.6293 2.38887L 32.3707 2.38887L 34.9929 7.68921C 35.1841 8.08639 35.6084 8.35725 36.0455 8.36109L 46.6818 8.36109C 48.3391 8.36109 49.6364 9.67222 49.6364 11.3472L 49.6364 37.625C 49.6364 39.3 48.3391 40.6111 46.6818 40.6111L 5.31818 40.6111C 3.66092 40.6111 2.36364 39.3 2.36364 37.625L 2.36364 11.3472C 2.36364 9.67222 3.66092 8.36109 5.31818 8.36109L 15.9545 8.36109C 16.3916 8.3575 16.8159 8.08639 17.0071 7.68921L 19.6293 2.38887ZM 26 12.5416C 19.4871 12.5416 14.1818 17.9035 14.1818 24.4861C 14.1818 31.0687 19.4871 36.4305 26 36.4305C 32.5131 36.4305 37.8182 31.0687 37.8182 24.4861C 37.8182 17.9036 32.5131 12.5416 26 12.5416ZM 26 14.9305C 31.2356 14.9305 35.4545 19.1946 35.4545 24.4861C 35.4545 29.7776 31.2356 34.0417 26 34.0417C 20.7645 34.0417 16.5455 29.7776 16.5455 24.4861C 16.5455 19.1946 20.7645 14.9305 26 14.9305Z"/>
</defs>
</svg>
