<svg width="31" height="31" viewBox="0 0 31 31" version="1.1" xmlns="http://www.w3.org/2000/svg" xmlns:xlink="http://www.w3.org/1999/xlink">
<title>Icon</title>
<desc>Created using Figma</desc>
<g id="Canvas" transform="translate(-1933 -217)">
<g id="Icon">
<g id="Vector">
<use xlink:href="#path0_stroke" transform="translate(1935 219)" fill="#F2F2F2"/>
</g>
<g id="Vector">
<use xlink:href="#path1_stroke" transform="translate(1959.6 226.007)" fill="#F2F2F2"/>
</g>
</g>
</g>
<defs>
<path id="path0_stroke" d="M 24.1513 8.35153C 24.5043 9.10097 25.398 9.42232 26.1475 9.06928C 26.8969 8.71625 27.2183 7.82251 26.8652 7.07308L 24.1513 8.35153ZM 26.6044 20.4536C 26.9865 19.7186 26.7003 18.813 25.9652 18.4309C 25.2301 18.0489 24.3245 18.3351 23.9425 19.0701L 26.6044 20.4536ZM 26.8652 7.07308C 25.4454 4.10792 22.9174 1.52331 19.9937 0.0478732L 18.6594 2.7348C 21.1531 3.94964 22.9817 5.81975 24.1513 8.35153L 26.8652 7.07308ZM 19.9937 0.0478732C 17.0503 -1.3901 13.4706 -1.83635 10.2675 -1.16456L 10.9024 1.76749C 13.6044 1.16067 16.1853 1.4825 18.6594 2.7348L 19.9937 0.0478732ZM 10.2675 -1.16456C 7.07391 -0.451357 3.99462 1.43574 1.8991 3.96365L 4.22094 5.8634C 5.96703 3.69619 8.19097 2.33291 10.9024 1.76749L 10.2675 -1.16456ZM 1.8991 3.96365C -0.163306 6.51718 -1.41233 9.91632 -1.49713 13.2058L 1.5023 13.2643C 1.53604 10.4705 2.44175 8.00502 4.22094 5.8634L 1.8991 3.96365ZM -1.49713 13.2058C -1.54055 16.4961 -0.424997 19.9418 1.53625 22.5747L 3.93073 20.7674C 2.23624 18.5569 1.42718 16.0573 1.5023 13.2643L -1.49713 13.2058ZM 1.53625 22.5747C 3.53153 25.1834 6.53462 27.1905 9.69786 28.0294L 10.4481 25.1247C 7.76061 24.4525 5.59118 23.0021 3.93073 20.7674L 1.53625 22.5747ZM 9.69786 28.0294C 12.8723 28.8273 16.4667 28.5229 19.4639 27.2023L 18.2366 24.4649C 15.7158 25.6184 13.1243 25.8379 10.4481 25.1247L 9.69786 28.0294ZM 19.4639 27.2023C 22.443 25.8435 25.07 23.3605 26.6044 20.4536L 23.9425 19.0701C 22.6753 21.5535 20.7755 23.3496 18.2366 24.4649L 19.4639 27.2023Z"/>
<path id="path1_stroke" d="M 1.40435 1.59322L 0.475593 3.3645L 3.55701 4.98022L 3.40237 1.50433L 1.40435 1.59322ZM -5.40788e-07 0.856859L -1.08118 -0.825711L -3.97248 1.03217L -0.928758 2.62813L -5.40788e-07 0.856859ZM 1.33347 -8.17164e-07L 3.33149 -0.0888902L 3.17698 -3.56192L 0.252286 -1.68257L 1.33347 -8.17164e-07ZM 2.33311 -0.178051L 0.928757 -0.914415L -0.928758 2.62813L 0.475593 3.3645L 2.33311 -0.178051ZM 1.08118 2.53943L 2.41465 1.68257L 0.252286 -1.68257L -1.08118 -0.825711L 1.08118 2.53943ZM -0.664554 0.0888886L -0.593673 1.68211L 3.40237 1.50433L 3.33149 -0.0888902L -0.664554 0.0888886Z"/>
</defs>
</svg>
